<svg width="175" height="175" viewBox="0 0 175 175" fill="none" xmlns="http://www.w3.org/2000/svg">
<circle cx="87.5" cy="87.5" r="87.5" fill="#FCE7F1"/>
<path d="M109.625 72.375H65.375C61.3018 72.375 58 75.6489 58 79.6875V113.812C58 117.851 61.3018 121.125 65.375 121.125H67.8333V123.562C67.8333 124.909 68.9334 126 70.2917 126H75.2083C76.5666 126 77.6667 124.909 77.6667 123.562V121.125H97.3333V123.562C97.3333 124.909 98.4334 126 99.7917 126H104.708C106.067 126 107.167 124.909 107.167 123.562V121.125H109.625C113.698 121.125 117 117.851 117 113.812V79.6875C117 75.6489 113.698 72.375 109.625 72.375ZM107.167 105.281C107.167 105.955 106.617 106.5 105.937 106.5H69.0625C68.3834 106.5 67.8333 105.955 67.8333 105.281V102.844C67.8333 102.17 68.3834 101.625 69.0625 101.625H105.937C106.617 101.625 107.167 102.17 107.167 102.844V105.281ZM107.167 90.6562C107.167 91.3296 106.617 91.875 105.937 91.875H69.0625C68.3834 91.875 67.8333 91.3296 67.8333 90.6562V88.2188C67.8333 87.5454 68.3834 87 69.0625 87H105.937C106.617 87 107.167 87.5454 107.167 88.2188V90.6562ZM80.125 55.3125H94.875V67.5H102.25V55.3125C102.25 51.2739 98.9481 48 94.875 48H80.125C76.0518 48 72.75 51.2739 72.75 55.3125V67.5H80.125V55.3125Z" fill="#FF8BC2"/>
</svg>
