<svg width="175" height="175" viewBox="0 0 175 175" fill="none" xmlns="http://www.w3.org/2000/svg">
<circle cx="87.5" cy="87.5" r="87.5" fill="#FDEBEB"/>
<path d="M96.2567 99.75C111.995 99.75 123 88.8339 123 73.1419C123 57.45 111.995 46.875 96.2567 46.875H66.0521C64.8268 46.875 63.8333 47.8614 63.8333 49.0781V87.0145H54.2188C52.9934 87.0145 52 88.0009 52 89.2176V97.5469C52 98.7635 52.9934 99.75 54.2188 99.75H63.8333V105.625H54.2188C52.9934 105.625 52 106.611 52 107.828V115.172C52 116.389 52.9934 117.375 54.2188 117.375H63.8333V126.922C63.8333 128.139 64.8268 129.125 66.0521 129.125H76.8796C78.1049 129.125 79.0983 128.139 79.0983 126.922V117.375H108.948C110.173 117.375 111.167 116.389 111.167 115.172V107.828C111.167 106.611 110.173 105.625 108.948 105.625H79.0983V99.75H96.2567ZM79.0983 59.4967H93.6533C102.292 59.4967 107.498 64.8411 107.498 73.1419C107.498 81.5564 102.292 87.0145 93.4167 87.0145H79.0983V59.4967Z" fill="#FF9393"/>
</svg>
