<svg width="175" height="175" viewBox="0 0 175 175" fill="none" xmlns="http://www.w3.org/2000/svg">
<circle cx="87.5" cy="87.5" r="87.5" fill="#EAF4FD"/>
<path d="M119.643 81.9375H115.464V69.4219C115.464 54.8551 103.59 43 89 43C74.4098 43 62.5357 54.8551 62.5357 69.4219V81.9375H58.3571C53.7433 81.9375 50 85.6748 50 90.2812V123.656C50 128.263 53.7433 132 58.3571 132H119.643C124.257 132 128 128.263 128 123.656V90.2812C128 85.6748 124.257 81.9375 119.643 81.9375ZM101.536 81.9375H76.4643V69.4219C76.4643 62.5209 82.0879 56.9062 89 56.9062C95.9121 56.9062 101.536 62.5209 101.536 69.4219V81.9375Z" fill="#79C0FF"/>
</svg>
