<svg width="175" height="175" viewBox="0 0 175 175" fill="none" xmlns="http://www.w3.org/2000/svg">
<circle cx="87.5" cy="87.5" r="87.5" fill="#EAF8FD"/>
<g clip-path="url(#clip0)">
<path d="M124.704 62.5948C119.976 60.6246 115.245 59.875 110.516 59.875C95.5051 59.8738 80.4949 67.424 65.4836 67.424C61.7189 67.424 57.9566 66.9493 54.1919 65.7626C53.769 65.6294 53.3448 65.5664 52.9305 65.5664C50.833 65.5664 49 67.1794 49 69.4184V107.837C49 109.366 49.8812 110.816 51.2961 111.404C56.0237 113.375 60.7548 114.125 65.4836 114.125C80.4949 114.125 95.5063 106.575 110.518 106.575C114.282 106.575 118.045 107.049 121.809 108.236C122.232 108.369 122.656 108.432 123.071 108.432C125.168 108.432 127.001 106.819 127.001 104.58V66.1634C127 64.6328 126.119 63.1845 124.704 62.5948V62.5948ZM54.85 72.011C57.3021 72.6213 59.8615 72.9277 62.494 73.0924C61.7774 76.6513 58.6281 79.3336 54.85 79.3336V72.011ZM54.85 106.523V100.737C59.0388 100.737 62.4282 104.039 62.6147 108.172C59.8688 107.953 57.3021 107.408 54.85 106.523V106.523ZM88 98.625C82.6143 98.625 78.25 93.4192 78.25 87C78.25 80.5796 82.6156 75.375 88 75.375C93.3844 75.375 97.75 80.5796 97.75 87C97.75 93.4216 93.3832 98.625 88 98.625ZM121.15 101.989C119.015 101.457 116.798 101.159 114.53 100.967C115.245 97.8088 117.881 95.4112 121.15 94.9995V101.989ZM121.15 73.3975C117.385 72.9241 114.464 69.8011 114.348 65.9442C116.73 66.207 118.99 66.6986 121.15 67.4773V73.3975Z" fill="#57D3FF"/>
</g>
<defs>
<clipPath id="clip0">
<rect width="78" height="62" fill="white" transform="translate(49 56)"/>
</clipPath>
</defs>
</svg>
