<svg width="175" height="175" viewBox="0 0 175 175" fill="none" xmlns="http://www.w3.org/2000/svg">
<circle cx="87.5" cy="87.5" r="87.5" fill="#EBEBFD"/>
<g clip-path="url(#clip0)">
<path d="M134.715 122.277L116.411 103.973C115.584 103.146 114.464 102.688 113.289 102.688H110.297C115.364 96.2066 118.375 88.0551 118.375 79.1875C118.375 58.0926 101.282 41 80.1875 41C59.0926 41 42 58.0926 42 79.1875C42 100.282 59.0926 117.375 80.1875 117.375C89.0551 117.375 97.2066 114.364 103.688 109.297V112.289C103.688 113.464 104.146 114.584 104.973 115.411L123.277 133.715C125.003 135.441 127.793 135.441 129.501 133.715L134.696 128.519C136.422 126.793 136.422 124.003 134.715 122.277ZM80.1875 102.688C67.2074 102.688 56.6875 92.1859 56.6875 79.1875C56.6875 66.2074 67.1891 55.6875 80.1875 55.6875C93.1676 55.6875 103.688 66.1891 103.688 79.1875C103.688 92.1676 93.1859 102.688 80.1875 102.688Z" fill="#AFAFFF"/>
</g>
<defs>
<clipPath id="clip0">
<rect width="94" height="94" fill="white" transform="translate(42 41)"/>
</clipPath>
</defs>
</svg>
