<svg width="175" height="175" viewBox="0 0 175 175" fill="none" xmlns="http://www.w3.org/2000/svg">
<circle cx="87.5" cy="87.5" r="87.5" fill="#FDF2EA"/>
<g clip-path="url(#clip0)">
<path d="M85.1494 118.869C84.6065 117.783 83.6606 117.672 83.2778 117.672C82.895 117.672 81.9491 117.781 81.4338 118.809L80.0223 121.625C78.8501 123.972 75.4161 123.713 74.5972 121.241L71.5 111.976L69.5475 117.828C68.4636 121.071 65.4289 123.25 62.0023 123.25H59.7222C58.0954 123.25 56.7778 121.935 56.7778 120.312C56.7778 118.69 58.0954 117.375 59.7222 117.375H62.0023C62.8912 117.375 63.6788 116.81 63.9604 115.969L67.3079 105.937C67.9152 104.136 69.5972 102.924 71.5 102.924C73.4029 102.924 75.0849 104.134 75.6903 105.937L78.2446 113.582C81.8792 110.61 88.1932 111.801 90.3905 116.182C90.7383 116.876 91.4008 117.274 92.113 117.331V102.254L115.669 78.9213V70.375H90.6389C88.2097 70.375 86.2222 68.3922 86.2222 65.9688V41H49.4167C46.9691 41 45 42.9645 45 45.4062V130.594C45 133.036 46.9691 135 49.4167 135H111.25C113.698 135 115.667 133.036 115.667 130.594V123.25L92.1111 123.23C89.1446 123.173 86.4836 121.526 85.1494 118.869ZM115.667 63.3801C115.667 62.2234 115.207 61.1035 114.379 60.2773L96.3622 42.2852C95.5341 41.459 94.4115 41 93.2337 41H92.1111V64.5H115.667V63.3801ZM98 104.7V117.375H110.696L140.45 87.4896L127.958 75.0273L98 104.7ZM149.627 71.7207L143.762 65.8696C141.933 64.0447 138.965 64.0447 137.135 65.8696L132.121 70.8725L144.612 83.3349L149.627 78.332C151.458 76.507 151.458 73.5457 149.627 71.7207Z" fill="#FFB47D"/>
</g>
<defs>
<clipPath id="clip0">
<rect width="106" height="94" fill="white" transform="translate(45 41)"/>
</clipPath>
</defs>
</svg>
