<svg width="175" height="175" viewBox="0 0 175 175" fill="none" xmlns="http://www.w3.org/2000/svg">
<circle cx="87.5" cy="87.5" r="87.5" fill="#EBFDF4"/>
<g clip-path="url(#clip0)">
<path d="M123.335 76.25H102.302L82.9606 42.4798C82.7027 42.0302 82.3303 41.6565 81.8811 41.3967C81.4319 41.1368 80.9219 41 80.4027 41H68.3488C66.3926 41 64.9811 42.8671 65.5185 44.7435L74.5414 76.25H55.6123L47.6623 65.675C47.1065 64.9351 46.2324 64.5 45.3067 64.5H37.9474C36.0317 64.5 34.6257 66.2955 35.0913 68.1498L40.89 88L35.0913 107.85C34.6257 109.704 36.0317 111.5 37.9474 111.5H45.3067C46.2342 111.5 47.1065 111.065 47.6623 110.325L55.6123 99.75H74.5414L65.5185 131.255C64.9811 133.131 66.3926 135 68.3488 135H80.4027C81.459 135 82.4343 134.435 82.9588 133.52L102.302 99.75H123.335C129.84 99.75 141.001 94.49 141.001 88C141.001 81.51 129.84 76.25 123.335 76.25Z" fill="#96FFCA"/>
</g>
<defs>
<clipPath id="clip0">
<rect width="106" height="94" fill="white" transform="translate(35 41)"/>
</clipPath>
</defs>
</svg>
