<svg width="111" height="111" viewBox="0 0 111 111" fill="none" xmlns="http://www.w3.org/2000/svg">
<path d="M55.5 62.4375C72.7354 62.4375 86.7188 48.4541 86.7188 31.2188C86.7188 13.9834 72.7354 0 55.5 0C38.2646 0 24.2812 13.9834 24.2812 31.2188C24.2812 48.4541 38.2646 62.4375 55.5 62.4375ZM83.25 69.375H71.3045C66.4916 71.5863 61.1367 72.8438 55.5 72.8438C49.8633 72.8438 44.5301 71.5863 39.6955 69.375H27.75C12.4225 69.375 0 81.7975 0 97.125V100.594C0 106.339 4.66113 111 10.4062 111H100.594C106.339 111 111 106.339 111 100.594V97.125C111 81.7975 98.5775 69.375 83.25 69.375Z" fill="#D7D7D9"/>
</svg>
