<svg width="84" height="84" viewBox="0 0 84 84" fill="none" xmlns="http://www.w3.org/2000/svg">
<g clip-path="url(#clip0)">
<path d="M33.0885 54.4528C26.2363 54.4528 21.3455 50.1017 17.7824 46.924C15.5297 44.9111 13.5854 43.1809 12.0179 43.1724H10.2192L10.322 41.3737C11.1897 25.9211 23.9665 13.8312 39.4439 13.8192C40.0495 13.8192 40.649 13.8363 41.2426 13.8706H41.8508L42.2961 14.2817C47.1013 18.71 47.1955 23.6179 42.5874 28.8427C40.6234 30.96 38.5112 32.9352 36.2662 34.7527C33.2941 37.3223 30.4846 39.6692 29.5339 41.8105C29.0311 42.6568 29.0148 43.7069 29.4911 44.5685C30.0735 45.6135 31.4696 46.6413 33.6452 47.6006C35.3232 48.2584 36.9009 49.1501 38.3304 50.2473H38.5617L39.5981 51.5835L39.0499 53.6991H38.0306C36.6097 54.1916 35.1142 54.4349 33.611 54.4186L33.0885 54.4528Z" fill="#CCD33D"/>
<path d="M39.4696 72.1915C23.7481 72.1924 10.8496 59.741 10.2963 44.0289L10.2363 42.2045L12.0607 42.2559C14.0393 42.3073 15.9751 44.0375 18.4247 46.2216C22.065 49.4679 26.5874 53.5021 33.0713 53.5021H33.5853C35.0748 53.5295 36.5548 53.2674 37.945 52.7312C38.2705 52.5599 38.4589 52.38 38.5017 52.2002C38.5445 52.0203 38.5702 51.9261 38.2191 51.4978C37.8679 51.0696 36.6773 49.9989 33.2683 48.4914C31.6572 47.8807 30.2337 46.8589 29.1399 45.5278C28.2637 44.3561 28.1112 42.7947 28.7459 41.4765C29.7908 39.1296 32.5317 36.7913 35.718 34.0846C37.915 32.3013 39.9844 30.3665 41.9107 28.2945C45.7137 23.9605 46.1933 20.5858 43.6238 17.1597L40.9343 13.5623L45.3368 14.4188C49.6177 15.2787 53.6494 17.0946 57.1312 19.7292L58.0819 20.4487L55.8549 27.8234L58.219 30.1874L61.6879 23.892L63.2639 26.1104C65.5294 29.2838 67.132 32.8812 67.9748 36.6885L68.2575 37.9818L67.084 38.5728C62.5273 40.8855 62.3731 42.1959 62.0819 44.5685C61.765 47.1381 61.3367 50.7526 53.6965 57.1252C51.5877 58.7389 49.789 60.7209 48.386 62.9753C47.27 64.9496 46.8845 67.2545 47.2983 69.4849L47.5638 71.1208L45.9878 71.4806C43.8482 71.9602 41.6623 72.1992 39.4696 72.1915Z" fill="#73DDCD"/>
<path d="M69.8849 30.1189L71.3324 25.3309L65.1997 19.5579L58.4331 31.7634L54.7757 28.1061L59.1183 13.8106L53.9106 8.90275C52.8074 7.91175 52.4468 6.33403 53.0113 4.96273C53.4558 3.91777 54.2875 3.08608 55.3325 2.64154H55.4181C55.8173 2.48908 56.2413 2.41028 56.6687 2.41028C57.6494 2.42827 58.5787 2.84968 59.2382 3.57515L64.1376 8.77427L78.4501 4.44881L82.1075 8.10618L69.902 14.847L75.675 20.9712L80.4715 19.5237L83.4437 22.4958L77.6279 25.7249L76.5915 26.2389L76.1204 27.1982L72.8228 33.0911L69.8849 30.1189Z" fill="white"/>
<path d="M46.2704 69.4078C45.903 67.048 46.3441 64.6335 47.521 62.5555C48.9985 60.1864 50.8965 58.1085 53.1226 56.4228C60.4716 50.2901 60.8314 47.0695 61.174 44.4743C61.4566 42.1359 61.962 40.3201 65.9534 38.1274L68.1718 36.9111L68.4459 39.4293C68.5898 40.6173 68.6609 41.813 68.66 43.0096C68.6772 50.7586 65.5928 58.1915 60.0948 63.6519C56.8468 66.8947 52.8837 69.3298 48.5231 70.7611L46.5788 71.3949L46.2704 69.4078Z" fill="#CCD33D"/>
<path d="M11.6154 69.2708C11.1143 69.7727 11.1143 70.5847 11.6154 71.0866C12.4608 71.9431 13.3533 72.7526 14.2877 73.5106C14.7888 74.0125 15.6025 74.0134 16.1044 73.5114C16.6063 73.0095 16.6072 72.1967 16.1053 71.6947C16.0719 71.6613 16.0368 71.6297 15.9999 71.6005L15.9143 71.532C15.0577 70.8211 14.2012 70.0588 13.4132 69.2708C12.9147 68.7808 12.1147 68.7808 11.6154 69.2708Z" fill="#2B1B19"/>
<path d="M1.34562 39.6007H1.50836C2.15846 39.6007 2.70664 39.1159 2.78458 38.4701C2.92163 37.3566 3.11006 36.2346 3.34989 35.1468C3.61456 34.4881 3.29593 33.7404 2.63726 33.4757C1.97859 33.211 1.23084 33.5297 0.966177 34.1883C0.912215 34.3219 0.88138 34.4641 0.874528 34.608C0.61757 35.7815 0.420569 36.972 0.27496 38.1626C0.182455 38.8521 0.657827 39.4911 1.34562 39.6007Z" fill="#2B1B19"/>
<path d="M6.01368 61.5364C5.40383 61.8987 5.2034 62.6876 5.56657 63.2974C5.56743 63.2983 5.56828 63.3 5.56828 63.3008C6.18498 64.3287 6.85307 65.3394 7.56399 66.3072C8.00253 66.8648 8.81024 66.9625 9.36784 66.5239C9.89888 66.1068 10.0162 65.3496 9.63679 64.7912C8.97726 63.8833 8.352 62.9411 7.77812 61.9818C7.41581 61.3719 6.62695 61.1715 6.0171 61.5347C6.01625 61.5347 6.01453 61.5355 6.01368 61.5364Z" fill="#2B1B19"/>
<path d="M2.40769 52.6371C1.7336 52.8435 1.35074 53.5544 1.55116 54.2302C1.89377 55.378 2.28778 56.5257 2.73317 57.6563C3.00041 58.3253 3.76014 58.6516 4.42909 58.3844C5.09804 58.1171 5.42438 57.3574 5.15714 56.6884C4.74601 55.652 4.36914 54.5814 4.05222 53.5022C3.8458 52.8281 3.13488 52.4452 2.45908 52.6456L2.40769 52.6371Z" fill="#2B1B19"/>
<path d="M3.44409 30.2303C4.10276 30.4933 4.85051 30.1721 5.11346 29.5134C5.11346 29.5126 5.11432 29.5117 5.11432 29.5108C5.51775 28.4616 5.9777 27.4346 6.49333 26.4359C6.81281 25.8021 6.55757 25.0295 5.92374 24.71C5.28991 24.3905 4.51732 24.6458 4.19784 25.2796C3.65823 26.3503 3.16144 27.4552 2.72461 28.5772C2.47279 29.2325 2.79313 29.9682 3.44409 30.2303Z" fill="#2B1B19"/>
<path d="M1.51691 49.1852H1.73104C2.43511 49.0961 2.93361 48.4538 2.84538 47.7497C2.84538 47.7488 2.84538 47.7471 2.84453 47.7463C2.70748 46.6328 2.61327 45.5022 2.57044 44.3887C2.54474 43.6795 1.94774 43.1253 1.23854 43.151C0.529336 43.1767 -0.0248371 43.7737 0.000858674 44.4829C0.0205588 45.6872 0.118203 46.8889 0.292078 48.0803C0.378587 48.697 0.895073 49.1621 1.51691 49.1852Z" fill="#2B1B19"/>
<path d="M32.1634 6.78722H32.4118C33.5167 6.57308 34.6388 6.41035 35.7523 6.299C36.4658 6.27501 37.0259 5.67716 37.002 4.96367C36.978 4.25018 36.3801 3.69002 35.6666 3.714C35.6118 3.71571 35.5578 3.72085 35.5039 3.72942C34.3133 3.84933 33.1142 4.02064 31.9322 4.2519C31.2178 4.26989 30.6534 4.86346 30.6714 5.57694C30.6893 6.29129 31.2829 6.85574 31.9964 6.83775C32.0547 6.83604 32.1138 6.8309 32.1711 6.82148L32.1634 6.78722Z" fill="#2B1B19"/>
<path d="M8.45476 21.922C8.86847 21.9237 9.25733 21.7259 9.49973 21.391C10.1593 20.483 10.8616 19.5923 11.5982 18.7529C12.0916 18.2364 12.0719 17.4175 11.5554 16.9242C11.0389 16.4308 10.2201 16.4505 9.72671 16.967C9.70444 16.9901 9.68302 17.015 9.66247 17.0398C8.87446 17.8963 8.12072 18.8899 7.41837 19.8663C7.0021 20.4411 7.13057 21.2445 7.7053 21.6608C7.92372 21.8184 8.18581 21.904 8.45476 21.9049V21.922Z" fill="#2B1B19"/>
<path d="M44.9942 6.51304H45.1912C45.9004 6.56529 46.518 6.03167 46.5702 5.32247C46.6225 4.61326 46.0889 3.9957 45.3797 3.94346C44.1976 3.76359 42.9899 3.63511 41.7908 3.56658C41.0816 3.52376 40.4717 4.06508 40.4289 4.77429C40.3861 5.48349 40.9274 6.09334 41.6366 6.13617C42.7672 6.22182 43.8893 6.34173 44.9942 6.51304Z" fill="#2B1B19"/>
<path d="M15.8209 14.6415C16.6774 13.922 17.5853 13.2368 18.5104 12.6029C19.0817 12.1824 19.2042 11.3781 18.7836 10.8068C18.3819 10.2612 17.6247 10.1216 17.0543 10.4873C16.0693 11.164 15.1014 11.9006 14.1764 12.6629C13.6299 13.1169 13.5554 13.928 14.0094 14.4744C14.4633 15.0209 15.2744 15.0954 15.8209 14.6415Z" fill="#2B1B19"/>
<path d="M23.0671 9.76782C23.2573 9.76611 23.444 9.72243 23.6153 9.63935C24.626 9.15969 25.671 8.72286 26.7245 8.33742C27.3986 8.11558 27.7643 7.38925 27.5425 6.71516C27.336 6.0899 26.6911 5.72159 26.0478 5.86206L25.868 5.92202C24.7348 6.32459 23.6256 6.79054 22.5446 7.31816C21.9014 7.61709 21.6222 8.38196 21.9219 9.02522C22.1335 9.48003 22.5909 9.77039 23.0928 9.76782H23.0671Z" fill="#2B1B19"/>
<path d="M38.4161 79.9516C37.7069 79.9328 37.1159 80.4929 37.097 81.2021C37.0782 81.9113 37.6384 82.5024 38.3476 82.5212H39.4182C40.2747 82.5212 41.1313 82.5212 41.9364 82.4441C42.6456 82.3996 43.1844 81.7871 43.1398 81.0779C43.0953 80.3687 42.4829 79.83 41.7737 79.8745C40.6568 79.9593 39.5356 79.985 38.4161 79.9516Z" fill="#2B1B19"/>
<path d="M75.0155 57.0824C75.6836 57.3222 76.4193 56.9744 76.6583 56.3072C76.6591 56.3055 76.6591 56.3046 76.66 56.3029C77.0626 55.1723 77.4137 54.016 77.7135 52.8768C77.9259 52.2002 77.5499 51.479 76.8724 51.2657C76.1949 51.0524 75.4746 51.4293 75.2613 52.1068C75.2441 52.1625 75.2304 52.2199 75.2202 52.2773C74.9461 53.365 74.612 54.4443 74.2352 55.4978C74.0339 56.1488 74.3765 56.8451 75.0155 57.0824Z" fill="#2B1B19"/>
<path d="M77.1054 38.076H77.3195C78.0193 37.9621 78.4947 37.3026 78.3816 36.6028C78.1846 35.4208 77.9362 34.2302 77.6364 33.0739C77.4309 32.3947 76.714 32.0101 76.0347 32.2157C75.3906 32.4101 75.006 33.0688 75.1525 33.7249C75.4352 34.8041 75.6664 35.9176 75.8549 37.0225C75.9654 37.628 76.4904 38.07 77.1054 38.076Z" fill="#2B1B19"/>
<path d="M78.1075 3.66083L64.4631 7.78929L59.8721 2.91565C58.7021 1.56234 56.7971 1.11095 55.1441 1.7936H55.067C53.8207 2.30666 52.8306 3.2968 52.3175 4.54305C52.1882 4.86853 52.0965 5.20771 52.0434 5.55375L51.5209 5.37388C50.8443 5.15632 50.1197 5.52806 49.9021 6.20471C49.6846 6.88137 50.0563 7.60599 50.7329 7.82355C51.3925 8.03768 52.052 8.27751 52.7115 8.5259C52.9102 8.83682 53.1424 9.12375 53.4053 9.38243L58.2618 13.9734L56.8742 18.5558C43.3026 8.87536 24.4538 12.0291 14.7725 25.6008C5.0912 39.1724 8.24579 58.0211 21.8175 67.7025C35.3891 77.3838 54.2378 74.2292 63.9192 60.6575C71.639 49.8353 71.3692 35.2367 63.2554 24.7057L65.4481 20.7485L70.5358 25.5451L69.311 29.5965C69.1594 30.0384 69.2682 30.5284 69.5937 30.8641C69.5937 30.8641 72.1033 33.348 72.1632 33.4337C72.7534 33.784 73.5148 33.5887 73.8652 32.9994C73.8686 32.9926 73.8729 32.9866 73.8763 32.9797L77.2253 26.8384L83.2724 23.5408C83.8994 23.2522 84.1743 22.5096 83.8848 21.8817C83.824 21.7507 83.7418 21.6308 83.6407 21.528L81.388 19.1383C81.0626 18.8136 80.5855 18.6954 80.1461 18.8299L76.0519 20.0719L71.2553 14.9841L82.0219 8.98842C82.6488 8.69977 82.9238 7.95716 82.6343 7.32933C82.5735 7.19828 82.4912 7.07837 82.3902 6.97559L79.3666 3.95205C79.0334 3.62914 78.5486 3.51693 78.1075 3.66083ZM19.9322 23.5494C25.1005 18.3837 32.1112 15.4869 39.4182 15.498C39.9895 15.498 40.56 15.5152 41.1313 15.5494C45.9878 20.0291 44.5574 24.1147 41.3026 27.7977C39.3822 29.8346 37.3214 31.7352 35.1356 33.4851C31.975 36.1746 29.0286 38.6842 27.9151 41.1938C26.596 44.1745 27.5639 46.8726 32.8915 49.228C35.5553 50.4101 37.0028 51.3265 37.5681 52.0203C37.6452 52.1145 37.7223 52.0203 37.7052 52.0203C37.6461 52.0246 37.5878 52.0392 37.5339 52.0631C36.2439 52.5539 34.8709 52.7903 33.4911 52.7569C27.0328 53.031 22.4333 48.9026 18.8616 45.7077C16.292 43.4208 14.1592 41.5193 11.9408 41.5022C12.3032 34.7382 15.1485 28.3451 19.9322 23.5494ZM67.0412 43.0611C67.0326 55.0079 59.3427 65.5946 47.9835 69.2965C47.6649 67.2888 48.0366 65.2331 49.037 63.4635C50.3946 61.2837 52.1351 59.3685 54.1762 57.8104C62.0819 51.2152 62.5273 47.5321 62.8699 44.697C63.0841 42.9069 63.2468 41.5707 66.7843 39.6264C66.9256 40.763 66.9975 41.9073 66.9984 43.0525L67.0412 43.0611ZM65.4395 33.7934C65.8224 34.8718 66.1367 35.9733 66.3817 37.0911C60.9941 39.8319 60.7543 41.7848 60.4288 44.4486C60.1376 46.8469 59.7607 49.9818 52.6173 55.9432C50.3295 57.694 48.3835 59.8507 46.8786 62.3072C45.5664 64.6267 45.1116 67.335 45.5938 69.956C30.7356 73.3521 15.9374 64.0614 12.5404 49.2023C12.1515 47.503 11.9254 45.7711 11.8638 44.0289C13.2256 44.0289 14.9901 45.6478 17.1571 47.5749C21.08 51.0781 26.0992 55.5492 33.5767 55.2837C35.3386 55.3137 37.0876 54.9813 38.7159 54.3072C39.4019 54.004 39.9219 53.4156 40.1377 52.697C40.3201 51.8953 40.0889 51.0559 39.521 50.4614C38.7159 49.4764 36.9514 48.3116 33.9193 46.9583C30.2962 45.3565 29.5082 43.7977 30.2191 42.2045C31.0757 40.2003 33.8337 37.9219 36.763 35.3523C39.0456 33.5074 41.1955 31.5039 43.1955 29.3566C46.7758 25.2796 48.6173 20.7914 44.9771 15.9691C49.0225 16.7965 52.8289 18.5267 56.1119 21.0312L54.1419 27.5322C53.9963 27.9776 54.1119 28.4667 54.4417 28.7999C54.4417 28.7999 57.6366 31.969 57.7393 32.029C58.3295 32.3793 59.0909 32.184 59.4413 31.5947C59.4447 31.5879 59.449 31.5819 59.4524 31.575L61.9449 27.0697C63.4138 29.1391 64.5898 31.402 65.4395 33.7934ZM68.6258 13.5794C68.0194 13.9006 67.789 14.6526 68.1102 15.2582C68.1161 15.2693 68.1221 15.2813 68.129 15.2925C68.1804 15.3867 74.7328 22.3588 74.7328 22.3588C75.0574 22.7023 75.5491 22.8316 76.0005 22.6928L80.1375 21.4423L80.7799 22.0847L76.9255 24.2175L75.8206 24.7656C75.5731 24.8881 75.3744 25.0903 75.2553 25.3395L74.7071 26.453L72.5744 30.3074L71.9491 29.6222L73.1911 25.5194C73.3358 25.0389 73.1765 24.5181 72.7885 24.2003L66.0305 17.8449C65.5457 17.3601 64.7594 17.3601 64.2746 17.8449C64.189 17.9391 58.1076 28.8941 58.1076 28.8941L56.78 27.5665L60.9256 13.9049C61.0738 13.4218 60.9153 12.8968 60.523 12.5773L55.1098 7.56659C54.5145 7.06209 54.3166 6.22955 54.6216 5.51092C54.8948 4.88823 55.3933 4.39316 56.0177 4.12335H56.0605C56.7697 3.84926 57.5749 4.05569 58.0648 4.63727L63.204 10.0676C63.5269 10.4145 64.0185 10.5473 64.4716 10.4103L78.1761 6.27323L79.5037 7.60085L68.6258 13.5794Z" fill="#2B1B19"/>
<path d="M73.5593 60.3115C72.9452 59.9903 72.1881 60.2139 71.8463 60.8169C71.3067 61.8019 70.7157 62.7697 70.0819 63.6948C69.6724 64.2764 69.8129 65.0798 70.3945 65.4892C70.9761 65.8986 71.7795 65.7582 72.1889 65.1766C72.857 64.183 73.4908 63.1466 74.0733 62.1016C74.4313 61.4909 74.2283 60.7064 73.6193 60.3458L73.5593 60.3115Z" fill="#2B1B19"/>
<path d="M78.8184 46.6327C78.9298 45.4421 78.9812 44.2344 78.9812 43.0353V42.8554C78.9769 42.1488 78.403 41.5792 77.6964 41.5792C76.9872 41.5604 76.397 42.1197 76.3782 42.8289C76.3782 42.8374 76.3782 42.846 76.3773 42.8554C76.3773 42.8554 76.3773 42.8554 76.3773 42.9068V43.0524C76.3773 44.1745 76.3259 45.3051 76.2232 46.4271C76.1589 47.1338 76.6797 47.759 77.3863 47.8233C77.3872 47.8233 77.3872 47.8233 77.388 47.8233H77.508C78.1923 47.8387 78.7688 47.3154 78.8184 46.6327Z" fill="#2B1B19"/>
<path d="M29.2769 78.5555C28.608 78.3191 27.8731 78.6703 27.6367 79.3392C27.4003 80.0082 27.7515 80.7431 28.4204 80.9795H28.5746C29.7223 81.305 30.9043 81.5876 32.0863 81.836H32.3262C33.0311 81.9508 33.6958 81.472 33.8105 80.7671C33.9253 80.0621 33.4465 79.3975 32.7416 79.2827C32.6833 79.2733 32.6251 79.2681 32.5669 79.2664C31.4559 79.0994 30.357 78.8621 29.2769 78.5555Z" fill="#2B1B19"/>
<path d="M50.8871 78.1615C49.825 78.5178 48.7406 78.8039 47.6409 79.018C46.9479 79.1739 46.5128 79.8626 46.6687 80.5555C46.8246 81.2484 47.5132 81.6835 48.2062 81.5277C49.371 81.2621 50.5445 80.9367 51.6837 80.5684C52.3492 80.3234 52.6901 79.5842 52.4451 78.9187C52.213 78.2874 51.5338 77.9431 50.8871 78.1272V78.1615Z" fill="#2B1B19"/>
<path d="M20.7631 74.9068C20.1746 74.5102 19.3764 74.6653 18.9798 75.2537C18.5832 75.8421 18.7382 76.6404 19.3267 77.037C19.3695 77.0661 19.4149 77.0927 19.4612 77.1158C20.4975 77.7239 21.5682 78.2892 22.656 78.8288C23.2992 79.1312 24.0667 78.8554 24.369 78.2121C24.6714 77.5689 24.3956 76.8014 23.7523 76.4991C22.7331 76.0032 21.7309 75.455 20.7631 74.9068Z" fill="#2B1B19"/>
<path d="M66.3731 68.3029C65.6108 69.1311 64.8048 69.9174 63.9577 70.6583C63.4275 71.1311 63.3821 71.9439 63.8549 72.4741C64.3277 73.0043 65.1406 73.0497 65.6708 72.5769C66.5273 71.7803 67.4352 70.9324 68.2403 70.0587C68.7191 69.5345 68.6823 68.7217 68.1581 68.2438C67.6433 67.7735 66.8476 67.8001 66.3645 68.3029H66.3731V68.3029Z" fill="#2B1B19"/>
<path d="M59.2468 74.2129C58.3046 74.8124 57.3196 75.3777 56.326 75.9259C55.6948 76.2497 55.4455 77.0249 55.7693 77.6561C56.0931 78.2874 56.8682 78.5366 57.4995 78.2129C58.5616 77.6647 59.6151 77.0565 60.6258 76.4141C61.2151 76.0184 61.3719 75.221 60.977 74.6317C60.6095 74.0844 59.8883 73.9037 59.3068 74.2129H59.2468Z" fill="#2B1B19"/>
</g>
<defs>
<clipPath id="clip0">
<rect width="84" height="84" fill="white"/>
</clipPath>
</defs>
</svg>
